<svg xmlns="http://www.w3.org/2000/svg" viewBox="0 0 64 64"><defs><style>.cls-1{fill:#870000;}.cls-2,.cls-3{fill:#fff;}.cls-3{opacity:0.6;}.cls-4{fill:#00bf87;}</style></defs><title>ext_icon + plugin</title><g id="ext-icon_plugin_copy" data-name="ext-icon + plugin copy"><path class="cls-1" d="M0,0H64V64H0Z"/><path class="cls-2" d="M50.38,25.76a1.7,1.7,0,0,1,.38,1V48a1.7,1.7,0,0,1-1.7,1.71c-6.07,0-26.7-.06-34.11,0A1.7,1.7,0,0,1,13.24,48V26.81a1.7,1.7,0,0,1,.38-1.06L30.95,36.13a2.84,2.84,0,0,0,3,0Zm-19,9.64a2,2,0,0,0,2.08,0l4-2.53H27.12ZM44.15,16.5H19.84a.64.64,0,0,0-.64.64v11l4.57,2.74h16.9l4.11-2.58V17.13A.64.64,0,0,0,44.15,16.5Zm-17.7,1.77h16.9v2H26.45Zm17.05,4.26v2H26.45v-2Zm-23-1.27V18.4H25.6v6H20.48Zm23,7.32h-23v-2h23Z"/><path class="cls-3" d="M32.91,14.52l3.1,2H28l3.1-2A1.71,1.71,0,0,1,32.91,14.52ZM49.46,25l-4.67-3v6.19l4.67-2.93A.17.17,0,0,0,49.46,25Zm-34.89.27,4.64,2.78v-6l-4.64,3A.17.17,0,0,0,14.57,25.32Z"/></g><g id="ext_icon_plugin" data-name="ext_icon + plugin"><path class="cls-4" d="M0,0H64V64H0Z"/><g id="poll"><g id="pollbar"><rect id="r" class="cls-2" x="30.25" y="37" width="11" height="22" transform="translate(83.75 12.25) rotate(90)"/><rect id="m" class="cls-2" x="34.75" y="0.5" width="11" height="31" transform="translate(56.25 -24.25) rotate(90)"/><rect id="l" class="cls-2" x="26.25" y="25" width="11" height="14" transform="translate(63.75 0.25) rotate(90)"/></g><path class="cls-2" d="M17.25,13.5v5h-5v-5h5m3-3h-11v11h11v-11Z"/><path class="cls-2" d="M17.25,29.5v5h-5v-5h5m3-3h-11v11h11v-11Z"/><path class="cls-2" d="M16.25,46.5v3h-3v-3h3m4-4h-11v11h11v-11Z"/></g></g></svg>